HIERARCHY
ROOT Hips
{
    OFFSET 0.000000 0.000000 0.000000
    CHANNELS 6 Xposition Yposition Zposition Zrotation Xrotation Yrotation
    JOINT Spine
    {
        OFFSET -0.000000 7.236184 0.000000
        CHANNELS 3 Zrotation Xrotation Yrotation
        JOINT Spine1
        {
            OFFSET -0.000000 20.420147 0.000000
            CHANNELS 3 Zrotation Xrotation Yrotation
            JOINT Neck
            {
                OFFSET -0.000000 20.336288 1.848754
                CHANNELS 3 Zrotation Xrotation Yrotation
                JOINT Head
                {
                    OFFSET -0.000000 12.354461 -1.764923
                    CHANNELS 3 Zrotation Xrotation Yrotation
                    End Site
                    {
                        OFFSET -0.000000 22.061537 0.000000
                    }
                }
            }
            JOINT LeftShoulder
            {
                OFFSET 3.573296 18.396038 -0.314103
                CHANNELS 3 Zrotation Xrotation Yrotation
                JOINT LeftArm
                {
                    OFFSET 10.880760 0.000000 0.000000
                    CHANNELS 3 Zrotation Xrotation Yrotation
                    JOINT LeftForeArm
                    {
                        OFFSET 27.185530 0.000000 0.000000
                        CHANNELS 3 Zrotation Xrotation Yrotation
                        JOINT LeftHand
                        {
                            OFFSET 27.825975 0.000000 0.000000
                            CHANNELS 3 Zrotation Xrotation Yrotation
                            End Site
                            {
                                OFFSET 13.236923 0.000000 0.000000
                            }
                        }
                    }
                }
            }
            JOINT RightShoulder
            {
                OFFSET -3.474926 18.396038 -0.314103
                CHANNELS 3 Zrotation Xrotation Yrotation
                JOINT RightArm
                {
                    OFFSET -10.880760 0.000000 0.000000
                    CHANNELS 3 Zrotation Xrotation Yrotation
                    JOINT RightForeArm
                    {
                        OFFSET -27.185530 0.000000 0.000000
                        CHANNELS 3 Zrotation Xrotation Yrotation
                        JOINT RightHand
                        {
                            OFFSET -27.825975 0.000000 0.000000
                            CHANNELS 3 Zrotation Xrotation Yrotation
                            End Site
                            {
                                OFFSET -13.236923 0.000000 0.000000
                            }
                        }
                    }
                }
            }
        }
    }
    JOINT LeftUpLeg
    {
        OFFSET 8.824615 0.000000 0.000000
        CHANNELS 3 Zrotation Xrotation Yrotation
        JOINT LeftLeg
        {
            OFFSET -0.000000 -35.111282 0.000000
            CHANNELS 3 Zrotation Xrotation Yrotation
            JOINT LeftFoot
            {
                OFFSET -0.000000 -42.324711 0.000000
                CHANNELS 3 Zrotation Xrotation Yrotation
                JOINT LeftToeBase
                {
                    OFFSET -0.000000 -5.735999 13.236923
                    CHANNELS 3 Zrotation Xrotation Yrotation
                    End Site
                    {
                        OFFSET -0.000000 0.000000 3.529846
                    }
                }
            }
        }
    }
    JOINT RightUpLeg
    {
        OFFSET -8.824615 0.000000 0.000000
        CHANNELS 3 Zrotation Xrotation Yrotation
        JOINT RightLeg
        {
            OFFSET -0.000000 -35.111282 0.000000
            CHANNELS 3 Zrotation Xrotation Yrotation
            JOINT RightFoot
            {
                OFFSET -0.000000 -42.324711 0.000000
                CHANNELS 3 Zrotation Xrotation Yrotation
                JOINT RightToeBase
                {
                    OFFSET -0.000000 -5.735999 13.236923
                    CHANNELS 3 Zrotation Xrotation Yrotation
                    End Site
                    {
                        OFFSET -0.000000 0.000000 3.529846
                    }
                }
            }
        }
    }
}
MOTION
Frames:    9
Frame Time:    0.008333
6.681465    83.700516    102.186562    -1.526916    -7.102574    -171.777008    -2.759656    -12.821277    -0.813401    3.182162    -0.938174    -0.477292    3.162392    4.016146    2.198118    12.497107    -0.273960    3.751783    22.286003    -8.095487    -7.666869    -8.505535    -14.303525    -11.746906    27.515272    -4.890141    -14.765804    -7.074229    -1.333038    1.194458    -13.543019    0.319504    -5.696721    5.202488    -27.500986    -1.848074    -20.294434    -0.985921    27.904598    -1.387345    4.114840    -0.462522    11.266451    -17.082891    -8.032252    -1.222509    24.548977    11.688549    -16.121059    -1.486303    -21.907400    -0.447146    -5.172170    0.500504    -18.404181    -1.178799    -5.633872    2.273076    7.967102    -4.533238    16.857674    -3.807122    -3.701262    -1.749515    -3.274137    1.900976    
6.066410    83.606422    102.237610    -1.198799    -7.144482    -171.931000    -3.067540    -12.675934    -1.271017    3.652840    -0.954013    -0.899818    3.208557    3.940048    1.823433    13.228829    -0.396408    3.476186    22.303810    -8.504199    -8.040029    -8.883645    -15.421286    -12.716563    29.040730    -6.954299    -16.537279    -5.795236    -2.741321    1.704028    -12.811164    0.559213    -6.294495    5.719787    -28.739216    -2.488705    -18.856922    -1.255120    27.328781    0.173890    3.370961    -0.438874    11.157164    -16.653101    -7.457280    -0.962366    24.085833    10.986343    -15.840773    -3.001602    -21.497641    -0.362757    -4.534549    0.405537    -18.871557    -2.035779    -5.462511    2.653094    9.152554    -4.756586    17.553226    -3.182383    -3.503985    -1.730441    -3.754364    1.881571    
5.484151    83.534973    102.305031    -0.894410    -7.181554    -172.127869    -3.325746    -12.511545    -1.688116    4.052923    -0.954584    -1.289675    3.263223    3.885557    1.446099    13.875636    -0.530450    3.187829    22.305857    -8.870627    -8.402706    -9.303341    -16.419973    -13.651619    30.403574    -9.090912    -18.315081    -4.441618    -4.192575    2.319904    -12.089357    0.791548    -6.869652    6.284001    -29.807676    -3.011251    -17.558889    -1.561785    26.744501    1.333361    2.643197    -0.248826    11.071921    -16.313272    -6.871088    -0.743864    23.728086    10.352935    -15.585048    -4.300475    -21.140484    -0.272372    -3.941775    0.304141    -19.359926    -2.978282    -5.269137    3.077287    10.418900    -5.025333    18.226419    -2.484225    -3.322029    -1.708943    -4.226952    1.859490    
4.896317    83.481407    102.391098    -0.589900    -7.215933    -172.388733    -3.553784    -12.320045    -2.094226    4.423809    -0.942795    -1.674175    3.333263    3.846141    1.052675    14.465073    -0.673940    2.875483    22.293846    -9.220444    -8.772902    -9.785486    -17.368326    -14.612724    31.666473    -11.429017    -20.214386    -2.955987    -5.777074    3.079003    -11.339930    1.031973    -7.451951    6.942747    -30.743866    -3.441178    -16.324009    -1.934063    26.113573    2.250338    1.879693    0.077225    11.006247    -16.022165    -6.259965    -0.557336    23.435131    9.773901    -15.331318    -5.480460    -20.804602    -0.168781    -3.367610    0.188259    -19.895046    -4.067792    -5.054346    3.574618    11.839987    -5.347281    18.913681    -1.667300    -3.147151    -1.681746    -4.708224    1.831208    
4.331590    83.449524    102.490471    -0.297689    -7.244711    -172.711792    -3.741191    -12.111254    -2.470098    4.757164    -0.920795    -2.034833    3.417529    3.818543    0.671077    14.953837    -0.807241    2.558813    22.270203    -9.537829    -9.128083    -10.304805    -18.223564    -15.553534    32.746784    -13.844791    -22.143593    -1.428802    -7.414007    3.934594    -10.605957    1.269788    -8.006855    7.674387    -31.476902    -3.745198    -15.221310    -2.356187    25.469967    2.940022    1.117149    0.489636    10.964797    -15.780242    -5.671860    -0.415905    23.211411    9.303742    -15.089236    -6.487505    -20.503254    -0.058488    -2.851383    0.065173    -20.447765    -5.257061    -4.843962    4.123909    13.345225    -5.695916    19.573881    -0.768917    -2.992723    -1.647123    -5.159782    1.794724    
3.737061    83.437454    102.611183    0.011882    -7.270497    -173.137894    -3.906917    -11.868136    -2.851042    5.093249    -0.886690    -2.405398    3.529531    3.799728    0.274572    15.369441    -0.936342    2.213154    22.233650    -9.852545    -9.498590    -10.910959    -19.064770    -16.564543    33.702808    -16.552975    -24.297771    0.260851    -9.253403    4.952926    -9.822751    1.528431    -8.576792    8.552774    -32.052372    -3.945246    -14.154345    -2.864450    24.754814    3.520193    0.288076    1.005158    10.944619    -15.552510    -5.065513    -0.308507    23.025616    8.921041    -14.833019    -7.420655    -20.205917    0.066059    -2.352392    -0.073543    -21.065306    -6.664644    -4.645364    4.775130    15.074479    -6.084239    20.259912    0.293000    -2.850846    -1.597549    -5.602988    1.741876    
3.168141    83.449005    102.741707    0.311449    -7.289747    -173.643814    -4.033211    -11.612757    -3.200423    5.403939    -0.844358    -2.750309    3.661000    3.787588    -0.091499    15.656192    -1.038101    1.874070    22.188538    -10.132442    -9.849185    -11.548317    -19.815966    -17.552683    34.416786    -19.288109    -26.488649    1.945722    -11.121890    6.019643    -9.066003    1.787140    -9.100852    9.502486    -32.393509    -4.010067    -13.232445    -3.401616    24.039362    3.967692    -0.519327    1.551586    10.949642    -15.349582    -4.508313    -0.248930    22.888720    8.688489    -14.585571    -8.188519    -19.940504    0.189396    -1.926654    -0.210682    -21.689262    -8.175302    -4.506253    5.468384    16.874432    -6.456913    20.898426    1.420343    -2.742821    -1.531860    -5.973139    1.671197    
2.609037    83.483414    102.882698    0.609613    -7.303144    -174.244263    -4.127226    -11.342604    -3.529025    5.702179    -0.793728    -3.079504    3.814407    3.781250    -0.431115    15.821587    -1.112507    1.538353    22.132904    -10.382085    -10.191458    -12.225257    -20.504034    -18.544943    34.894917    -22.083580    -28.777775    3.648140    -13.049923    7.123991    -8.318381    2.055197    -9.587946    10.535828    -32.518173    -3.952172    -12.424567    -3.959716    23.311720    4.330845    -1.309182    2.118285    10.977151    -15.152103    -3.988360    -0.231150    22.781870    8.600675    -14.338429    -8.829556    -19.695765    0.309522    -1.560473    -0.344074    -22.329592    -9.820728    -4.453592    6.205980    18.779749    -6.799863    21.501137    2.620178    -2.670105    -1.444347    -6.261496    1.576424    
2.100554    83.535980    103.020714    0.884512    -7.308672    -174.890747    -4.184398    -11.079807    -3.814436    5.966120    -0.741482    -3.369799    3.973882    3.781770    -0.715419    15.863621    -1.154244    1.236132    22.071426    -10.580944    -10.504160    -12.881374    -21.089510    -19.467073    35.121075    -24.689060    -30.985468    5.228053    -14.869781    8.151500    -7.637661    2.311857    -9.999907    11.556056    -32.433617    -3.794310    -11.779956    -4.474632    22.633526    4.605331    -2.006583    2.639889    11.021840    -14.961336    -3.542501    -0.250463    22.698492    8.651223    -14.108291    -9.317805    -19.481798    0.412732    -1.274748    -0.458563    -22.932932    -11.462920    -4.513551    6.914310    20.633738    -7.070349    22.022251    3.774238    -2.637084    -1.339635    -6.437826    1.462538    
